<svg version="1.1" xmlns="http://www.w3.org/2000/svg" xmlns:xlink="http://www.w3.org/1999/xlink" width="1560" height="804"><defs/><g><path fill="none" stroke="#02063B" paint-order="fill stroke markers" d=" M 20 418.25045707465307 L 21 419.05550593323585 L 22 419.8594632452605 L 23 420.66227755773343 L 24 421.4638974908127 L 25 422.26427174109625 L 26 423.0633490849052 L 27 423.8610783815624 L 28 424.657408576665 L 29 425.45228870535243 L 30 426.24566789556775 L 31 427.0374953713136 L 32 427.8277204559017 L 33 428.6162925751966 L 34 429.4031612608517 L 35 430.1882761535396 L 36 430.9715870061753 L 37 431.75304368713154 L 38 432.5325961834475 L 39 433.3101946040295 L 40 434.085789182844 L 41 434.85933028210275 L 42 435.6307683954394 L 43 436.40005415107805 L 44 437.1671383149928 L 45 437.93197179405917 L 46 438.6945056391954 L 47 439.4546910484959 L 48 440.21247937035366 L 49 440.96782210657494 L 50 441.72067091548234 L 51 442.47097761500913 L 52 443.2186941857826 L 53 443.96377277419754 L 54 444.7061656954785 L 55 445.445825436732 L 56 446.18270465998694 L 57 446.91675620522466 L 58 447.64793309339683 L 59 448.3761885294321 L 60 449.10147590523127 L 61 449.82374880264973 L 62 450.5429609964686 L 63 451.259066457353 L 64 451.9720193547979 L 65 452.6817740600612 L 66 453.3882851490839 L 67 454.0915074053976 L 68 454.79139582301787 L 69 455.4879056093249 L 70 456.1809921879301 L 71 456.870611201529 L 72 457.55671851474017 L 73 458.2392702169297 L 74 458.9182226250216 L 75 459.5935322862936 L 76 460.2651559811578 L 77 460.93305072592705 L 78 461.5971737755656 L 79 462.2574826264249 L 80 462.913935018964 L 81 463.5664889404538 L 82 464.21510262766606 L 83 464.85973456954616 L 84 465.50034350986994 L 85 466.1368884498838 L 86 466.76932865092886 L 87 467.3976236370482 L 88 468.0217331975771 L 89 468.64161738971666 L 90 469.25723654109026 L 91 469.8685512522823 L 92 470.47552239936 L 93 471.07811113637706 L 94 471.67627889786 L 95 472.26998740127624 L 96 472.85919864948426 L 97 473.44387493316526 L 98 474.02397883323664 L 99 474.59947322324683 L 100 475.17032127175133 L 101 475.7364864446698 L 102 476.2979325076245 L 103 476.8546235282591 L 104 477.4065238785381 L 105 477.9535982370277 L 106 478.4958115911554 L 107 479.0331292394519 L 108 479.565516793771 L 109 480.0929401814909 L 110 480.6153656476949 L 111 481.13275975733137 L 112 481.645089397354 L 113 482.15232177884064 L 114 482.65442443909205 L 115 483.15136524370934 L 116 483.64311238865065 L 117 484.1296344022665 L 118 484.61090014731417 L 119 485.0868788229502 L 120 485.5575399667018 L 121 486.0228534564165 L 122 486.4827895121897 L 123 486.9373186982708 L 124 487.38641192494714 L 125 487.8300404504055 L 126 488.26817588257154 L 127 488.70079018092724 L 128 489.1278556583052 L 129 489.54934498266056 L 130 489.96523117882055 L 131 490.3754876302104 L 132 490.78008808055745 L 133 491.17900663557083 L 134 491.57221776459926 L 135 491.95969630226466 L 136 492.34141745007287 L 137 492.71735677800075 L 138 493.0874902260597 L 139 493.45179410583523 L 140 493.81024510200353 L 141 494.16282027382306 L 142 494.5094970566033 L 143 494.8502532631484 L 144 495.1850670851775 L 145 495.5139170947202 L 146 495.8367822454882 L 147 496.1536418742221 L 148 496.4644757020137 L 149 496.76926383560425 L 150 497.0679867686571 L 151 497.36062538300655 L 152 497.6471609498812 L 153 497.92757513110257 L 154 498.2018499802587 L 155 498.46996794385296 L 156 498.7319118624272 L 157 498.9876649716599 L 158 499.2372109034396 L 159 499.4805336869116 L 160 499.71761774950096 L 161 499.94844791790854 L 162 500.1730094190824 L 163 500.39128788116307 L 164 500.60326933440354 L 165 500.808940212063 L 166 501.0082873512757 L 167 501.2012979938927 L 168 501.3879597872987 L 169 501.56826078520265 L 170 501.74218944840226 L 171 501.9097346455224 L 172 502.0708856537277 L 173 502.22563215940863 L 174 502.3739642588416 L 175 502.51587245882297 L 176 502.65134767727625 L 177 502.7803812438338 L 178 502.90296490039134 L 179 503.0190908016368 L 180 503.12875151555204 L 181 503.2319400238888 L 182 503.3286497226178 L 183 503.41887442235134 L 184 503.5026083487394 L 185 503.5798461428393 L 186 503.65058286145853 L 187 503.71481397747135 L 188 503.77253538010814 L 189 503.82374337521895 L 190 503.86843468550944 L 191 503.90660645075116 L 192 503.938256227964 L 193 503.96338199157316 L 194 503.9819821335382 L 195 503.99405546345656 L 196 503.9996012086391 L 197 503.9986190141601 L 198 503.9911089428797 L 199 503.97707147543974 L 200 503.9565075102335 L 201 503.92941836334774 L 202 503.89580576847845 L 203 503.85567187682045 L 204 503.80901925692893 L 205 503.7558508945557 L 206 503.6961701924578 L 207 503.6299809701799 L 208 503.5572874638094 L 209 503.47809432570614 L 210 503.3924066242038 L 211 503.30022984328593 L 212 503.2015698822353 L 213 503.0964330552555 L 214 502.98482609106776 L 215 502.86675613247957 L 216 502.742230735928 L 217 502.6112578709959 L 218 502.47384591990203 L 219 502.3300036769643 L 220 502.17974034803706 L 221 502.0230655499222 L 222 501.8599893097533 L 223 501.690522064354 L 224 501.5146746595703 L 225 501.3324583495759 L 226 501.1438847961526 L 227 500.94896606794333 L 228 500.7477146396802 L 229 500.540143391386 L 230 500.3262656075497 L 231 500.1060949762765 L 232 499.87964558841156 L 233 499.64693193663857 L 234 499.40796891455165 L 235 499.16277181570274 L 236 498.9113563326224 L 237 498.65373855581583 L 238 498.38993497273276 L 239 498.1199624667124 L 240 497.84383831590316 L 241 497.56158019215627 L 242 497.2732061598953 L 243 496.97873467496004 L 244 496.6781845834249 L 245 496.3715751203932 L 246 496.0589259087658 L 247 495.7402569579857 L 248 495.4155886627568 L 249 495.0849418017394 L 250 494.74833753621954 L 251 494.4057974087554 L 252 494.0573433417982 L 253 493.7029976362893 L 254 493.3427829702329 L 255 492.9767223972447 L 256 492.6048393450764 L 257 492.2271576141164 L 258 491.84370137586654 L 259 491.45449517139525 L 260 491.05956390976667 L 261 490.65893286644683 L 262 490.25262768168574 L 263 489.84067435887647 L 264 489.4230992628911 L 265 488.99992911839337 L 266 488.5711910081279 L 267 488.1369123711875 L 268 487.6971210012567 L 269 487.251845044833 L 270 486.80111299942564 L 271 486.34495371173176 L 272 485.88339637579 L 273 485.41647053111234 L 274 484.9442060607934 L 275 484.46663318959816 L 276 483.9837824820274 L 277 483.49568484036143 L 278 483.0023715026829 L 279 482.50387404087684 L 280 482.0002243586108 L 281 481.49145468929254 L 282 480.9775975940072 L 283 480.4586859594334 L 284 479.9347529957388 L 285 479.405832234454 L 286 478.8719575263275 L 287 478.3331630391581 L 288 477.78948325560924 L 289 477.24095297100143 L 290 476.68760729108567 L 291 476.1294816297966 L 292 475.566611706986 L 293 474.99903354613684 L 294 474.4267834720577 L 295 473.84989810855797 L 296 473.26841437610403 L 297 472.6823694894562 L 298 472.0918009552873 L 299 471.4967465697818 L 300 470.8972444162174 L 301 470.2933328625272 L 302 469.6850505588446 L 303 469.0724364350293 L 304 468.4555296981762 L 305 467.8343698301058 L 306 467.20899658483773 L 307 466.5794499860462 L 308 465.9457703244986 L 309 465.30799815547704 L 310 464.6661742961826 L 311 464.0203398231232 L 312 463.37053606948473 L 313 462.7168046224855 L 314 462.0591873207151 L 315 461.39772625145633 L 316 460.73246374799186 L 317 460.06344238689485 L 318 459.39070498530396 L 319 458.71429459818336 L 320 458.0342545155669 L 321 457.3506282597878 L 322 456.663459582693 L 323 455.97279246284336 L 324 455.27867110269875 L 325 454.58113992578933 L 326 453.88024357387235 L 327 453.176026904075 L 328 452.4685349860239 L 329 451.7578130989602 L 330 451.0439067288421 L 331 450.3268615654337 L 332 449.6067234993806 L 333 448.88353861927334 L 334 448.15735320869726 L 335 447.4282137432709 L 336 446.696166887671 L 337 445.9612594926466 L 338 445.2235385920201 L 339 444.48305139967727 L 340 443.73984530654576 L 341 442.9939678775618 L 342 442.2454668486262 L 343 441.49439012354946 L 344 440.7407857709855 L 345 439.9847020213557 L 346 439.2261872637619 L 347 438.46529004288976 L 348 437.70205905590166 L 349 436.9365431493203 L 350 436.1687913159023 L 351 435.39885269150307 L 352 434.62677655193164 L 353 433.8526123097975 L 354 433.0764095113479 L 355 432.2982178332969 L 356 431.51808707964636 L 357 430.7360671784982 L 358 429.9522081788592 L 359 429.16656024743776 L 360 428.3791736654333 L 361 427.5900988253183 L 362 426.79938622761324 L 363 426.00708647765447 L 364 425.2132502823555 L 365 424.4179284469619 L 366 423.6211718717997 L 367 422.8230315490177 L 368 422.0235585593241 L 369 421.22280406871744 L 370 420.42081932521177 L 371 419.61765565555686 L 372 418.8133644619535 L 373 418.00799721876353 L 374 417.2016054692156 L 375 416.39424082210644 L 376 415.5859549484979 L 377 414.77679957841 L 378 413.96682649751017 L 379 413.15608754379923 L 380 412.3446346042934 L 381 411.53251961170383 L 382 410.7197945411129 L 383 409.90651140664767 L 384 409.0927222581512 L 385 408.2784791778511 L 386 407.46383427702676 L 387 406.6488396926737 L 388 405.833547584167 L 389 405.0180101299235 L 390 404.2022795240618 L 391 403.38640797306226 L 392 402.5704476924257 L 393 401.75445090333153 L 394 400.93846982929574 L 395 400.12255669282854 L 396 399.3067637120921 L 397 398.4911430975589 L 398 397.6757470486697 L 399 396.8606277504934 L 400 396.04583737038683 L 401 395.2314280546562 L 402 394.4174519252198 L 403 393.6039610762719 L 404 392.7910075709493 L 405 391.9786434379989 L 406 391.16692066844786 L 407 390.35589121227633 L 408 389.5456069750927 L 409 388.73611981481156 L 410 387.92748153833486 L 411 387.1197438982363 L 412 386.3129585894492 L 413 385.5071772459578 L 414 384.70245143749315 L 415 383.89883266623224 L 416 383.0963723635022 L 417 382.2951218864885 L 418 381.4951325149482 L 419 380.69645544792786 L 420 379.89914180048726 L 421 379.10324260042773 L 422 378.3088087850264 L 423 377.51589119777617 L 424 376.7245405851321 L 425 375.9348075932632 L 426 375.1467427648115 L 427 374.3603965356569 L 428 373.57581923168976 L 429 372.79306106558965 L 430 372.0121721336121 L 431 371.2332024123822 L 432 370.45620175569616 L 433 369.6812198913308 L 434 368.90830641786096 L 435 368.1375108014851 L 436 367.3688823728596 L 437 366.6024703239415 L 438 365.8383237048403 L 439 365.0764914206789 L 440 364.3170222284633 L 441 363.5599647339627 L 442 362.8053673885983 L 443 362.0532784863426 L 444 361.3037461606287 L 445 360.55681838126947 L 446 359.81254295138797 L 447 359.07096750435767 L 448 358.33213950075395 L 449 357.596106225317 L 450 356.862914783925 L 451 356.1326121005802 L 452 355.4052449144049 L 453 354.6808597766507 L 454 353.9595030477193 L 455 353.241220894195 L 456 352.5260592858906 L 457 351.8140639929047 L 458 351.1052805826933 L 459 350.3997544171525 L 460 349.69753064971616 L 461 348.99865422246575 L 462 348.30316986325397 L 463 347.6111220828424 L 464 346.92255517205297 L 465 346.23751319893273 L 466 345.55604000593416 L 467 344.8781792071091 L 468 344.20397418531724 L 469 343.5334680894499 L 470 342.86670383166825 L 471 342.2037240846572 L 472 341.5445712788944 L 473 340.8892875999343 L 474 340.23791498570876 L 475 339.5904951238427 L 476 338.94706944898627 L 477 338.30767914016315 L 478 337.67236511813473 L 479 337.0411680427817 L 480 336.41412831050127 L 481 335.7912860516225 L 482 335.1726811278371 L 483 334.5583531296493 L 484 333.94834137384106 L 485 333.3426849009567 L 486 332.7414224728037 L 487 332.14459256997225 L 488 331.55223338937236 L 489 330.9643828417894 L 490 330.3810785494578 L 491 329.8023578436532 L 492 329.2282577623032 L 493 328.65881504761705 L 494 328.0940661437341 L 495 327.53404719439146 L 496 326.9787940406107 L 497 326.42834221840417 L 498 325.88272695650056 L 499 325.34198317409044 L 500 324.8061454785913 L 501 324.27524816343276 L 502 323.7493252058618 L 503 323.2284102647681 L 504 322.71253667853017 L 505 322.2017374628814 L 506 321.6960453087973 L 507 321.195492580403 L 508 320.70011131290244 L 509 320.2099332105275 L 510 319.7249896445095 L 511 319.24531165107106 L 512 318.77092992944006 L 513 318.3018748398848 L 514 317.83817640177097 L 515 317.37986429164016 L 516 316.9269678413111 L 517 316.479516036002 L 518 316.0375375124757 L 519 315.6010605572068 L 520 315.1701131045714 L 521 314.74472273505944 L 522 314.32491667350945 L 523 313.9107217873659 L 524 313.50216458496027 L 525 313.099271213814 L 526 312.7020674589653 L 527 312.310578741319 L 528 311.9248301160193 L 529 311.5448462708465 L 530 311.17065152463715 L 531 310.8022698257272 L 532 310.43972475041966 L 533 310.0830395014756 L 534 309.7322369066291 L 535 309.38733941712667 L 536 309.0483691062898 L 537 308.71534766810265 L 538 308.3882964158237 L 539 308.0672362806214 L 540 307.75218781023483 L 541 307.44317116765853 L 542 307.14020612985223 L 543 306.84331208647484 L 544 306.55250803864385 L 545 306.267812597719 L 546 305.9892439841114 L 547 305.71682002611726 L 548 305.4505581587768 L 549 305.1904754227587 L 550 304.93658846326935 L 551 304.6889135289874 L 552 304.4474664710242 L 553 304.21226274190894 L 554 303.98331739460014 L 555 303.7606450815217 L 556 303.54426005362575 L 557 303.3341761594803 L 558 303.1304068443827 L 559 302.9329651494997 L 560 302.74186371103224 L 561 302.55711475940734 L 562 302.3787301184947 L 563 302.20672120485045 L 564 302.04109902698644 L 565 301.88187418466543 L 566 301.72905686822304 L 567 301.58265685791537 L 568 301.442683523293 L 569 301.30914582260175 L 570 301.1820523022087 L 571 301.06141109605585 L 572 300.94722992513925 L 573 300.8395160970149 L 574 300.7382765053309 L 575 300.6435176293866 L 576 300.5552455337178 L 577 300.47346586770846 L 578 300.3981838652292 L 579 300.3294043443026 L 580 300.2671317067945 L 581 300.2113699381324 L 582 300.16212260705043 L 583 300.1193928653611 L 584 300.08318344775313 L 585 300.05349667161704 L 586 300.0303344368963 L 587 300.013698225966 L 588 300.00358910353793 L 589 300.0000077165926 L 590 300.0029542943375 L 591 300.0124286481926 L 592 300.0284301718026 L 593 300.05095784107533 L 594 300.0800102142477 L 595 300.11558543197776 L 596 300.1576812174637 L 597 300.2062948765896 L 598 300.2614232980979 L 599 300.3230629537884 L 600 300.39120989874425 L 601 300.4658597715842 L 602 300.5470077947418 L 603 300.63464877477134 L 604 300.72877710268 L 605 300.82938675428693 L 606 300.9364712906087 L 607 301.0500238582717 L 608 301.17003718995016 L 609 301.29650360483197 L 610 301.4294150091096 L 611 301.5687628964987 L 612 301.71453834878196 L 613 301.8667320363802 L 614 302.02533421894935 L 615 302.1903347460039 L 616 302.36172305756634 L 617 302.5394881848434 L 618 302.72361875092747 L 619 302.91410297152515 L 620 303.1109286557115 L 621 303.31408320670977 L 622 303.52355362269816 L 623 303.7393264976414 L 624 303.9613880221492 L 625 304.1897239843599 L 626 304.4243197708497 L 627 304.66516036756843 L 628 304.91223036080004 L 629 305.1655139381494 L 630 305.4249948895539 L 631 305.69065660832126 L 632 305.9624820921922 L 633 306.2404539444285 L 634 306.52455437492654 L 635 306.8147652013556 L 636 307.11106785032206 L 637 307.41344335855734 L 638 307.72187237413226 L 639 308.03633515769496 L 640 308.3568115837348 L 641 308.6832811418697 L 642 309.01572293815957 L 643 309.35411569644276 L 644 309.6984377596984 L 645 310.0486670914318 L 646 310.4047812770854 L 647 310.7667575254728 L 648 311.13457267023773 L 649 311.50820317133645 L 650 311.88762511654437 L 651 312.27281422298654 L 652 312.6637458386916 L 653 313.0603949441697 L 654 313.4627361540133 L 655 313.8707437185224 L 656 314.28439152535213 L 657 314.70365310118405 L 658 315.12850161342044 L 659 315.55890987190145 L 660 315.9948503306455 L 661 316.43629508961203 L 662 316.8832158964872 L 663 317.33558414849176 L 664 317.7933708942121 L 665 318.2565468354528 L 666 318.7250823291116 L 667 319.198947389077 L 668 319.6781116881467 L 669 320.16254455996926 L 670 320.6522150010062 L 671 321.14709167251635 L 672 321.64714290256177 L 673 322.1523366880344 L 674 322.66264069670433 L 675 323.17802226928933 L 676 323.6984484215445 L 677 324.2238858463739 L 678 324.7543009159615 L 679 325.2896596839241 L 680 325.82992788748317 L 681 326.37507094965804 L 682 326.925053981479 L 683 327.4798417842195 L 684 328.0393988516497 L 685 328.6036893723082 L 686 329.1726772317944 L 687 329.7463260150794 L 688 330.3245990088368 L 689 330.90745920379254 L 690 331.49486929709303 L 691 332.0867916946928 L 692 332.6831885137605 L 693 333.28402158510323 L 694 333.8892524556095 L 695 334.49884239071014 L 696 335.1127523768575 L 697 335.7309431240219 L 698 336.3533750682066 L 699 336.98000837397956 L 700 337.6108029370232 L 701 338.2457183867007 L 702 338.88471408864007 L 703 339.5277491473344 L 704 340.17478240875954 L 705 340.8257724630075 L 706 341.4806776469371 L 707 342.1394560468401 L 708 342.80206550112376 L 709 343.4684636030091 L 710 344.1386077032452 L 711 344.8124549128383 L 712 345.48996210579696 L 713 346.17108592189214 L 714 346.8557827694321 L 715 347.54400882805226 L 716 348.2357200515199 L 717 348.9308721705527 L 718 349.62942069565236 L 719 350.3313209199517 L 720 351.03652792207595 L 721 351.7449965690177 L 722 352.4566815190254 L 723 353.1715372245051 L 724 353.88951793493567 L 725 354.61057769979675 L 726 355.3346703715095 L 727 356.0617496083901 L 728 356.7917688776154 L 729 357.5246814582016 L 730 358.2604404439936 L 731 358.99899874666744 L 732 359.74030909874386 L 733 360.48432405661333 L 734 361.2309960035725 L 735 361.98027715287174 L 736 362.73211955077306 L 737 363.48647507961977 L 738 364.2432954609154 L 739 365.002532258414 L 740 365.76413688121966 L 741 366.5280605868964 L 742 367.29425448458784 L 743 368.06266953814605 L 744 368.8332565692699 L 745 369.60596626065245 L 746 370.38074915913717 L 747 371.157555678883 L 748 371.9363361045379 L 749 372.7170405944204 L 750 373.49961918370957 L 751 374.28402178764287 L 752 375.07019820472146 L 753 375.8580981199229 L 754 376.64767110792155 L 755 377.43886663631577 L 756 378.2316340688617 L 757 379.0259226687144 L 758 379.82168160167436 L 759 380.61885993944173 L 760 381.41740666287484 L 761 382.2172706652561 L 762 383.0184007555622 L 763 383.82074566174094 L 764 384.62425403399214 L 765 385.4288744480543 L 766 386.23455540849545 L 767 387.04124535200924 L 768 387.8488926507146 L 769 388.65744561546006 L 770 389.4668524991319 L 771 390.2770614999658 L 772 391.0880207648623 L 773 391.89967839270525 L 774 392.71198243768345 L 775 393.52488091261534 L 776 394.338321792276 L 777 395.15225301672683 L 778 395.9666224946472 L 779 396.78137810666846 L 780 397.59646770870967 L 781 398.41183913531444 L 782 399.2274402029898 L 783 400.0432187135458 L 784 400.85912245743623 L 785 401.6750992170999 L 786 402.4910967703029 L 787 403.3070628934801 L 788 404.1229453650783 L 789 404.9386919688978 L 790 405.7542504974343 L 791 406.5695687552205 L 792 407.38459456216606 L 793 408.1992757568976 L 794 409.01356020009666 L 795 409.82739577783695 L 796 410.64073040491917 L 797 411.4535120282048 L 798 412.2656886299474 L 799 413.0772082311218 L 800 413.88801889475036 L 801 414.69806872922743 L 802 415.5073058916401 L 803 416.31567859108617 L 804 417.12313509198884 L 805 417.9296237174076 L 806 418.7350928523458 L 807 419.53949094705365 L 808 420.3427665203277 L 809 421.14486816280544 L 810 421.94574454025553 L 811 422.7453443968632 L 812 423.54361655851045 L 813 424.34050993605143 L 814 425.1359735285822 L 815 425.92995642670417 L 816 426.7224078157829 L 817 427.5132769792 L 818 428.3025133015989 L 819 429.09006627212443 L 820 429.87588548765524 L 821 430.65992065602984 L 822 431.442121599265 L 823 432.22243825676736 L 824 433.0008206885372 L 825 433.77721907836457 L 826 434.5515837370175 L 827 435.32386510542216 L 828 436.09401375783466 L 829 436.861980405004 L 830 437.62771589732694 L 831 438.39117122799337 L 832 439.1522975361228 L 833 439.91104610989106 L 834 440.66736838964863 L 835 441.42121597102766 L 836 442.1725406080404 L 837 442.9212942161663 L 838 443.6674288754302 L 839 444.4108968334685 L 840 445.1516505085857 L 841 445.8896424927994 L 842 446.6248255548745 L 843 447.357152643346 L 844 448.08657688953025 L 845 448.81305161052444 L 846 449.5365303121943 L 847 450.25696669215 L 848 450.97431464270903 L 849 451.6885282538475 L 850 452.39956181613803 L 851 453.10736982367536 L 852 453.81190697698855 L 853 454.51312818594033 L 854 455.2109885726126 L 855 455.9054434741789 L 856 456.5964484457626 L 857 457.28395926328125 L 858 457.9679319262773 L 859 458.64832266073375 L 860 459.32508792187576 L 861 459.99818439695775 L 862 460.66756900803506 L 863 461.3331989147209 L 864 461.99503151692863 L 865 462.6530244575975 L 866 463.307135625404 L 867 463.9573231574565 L 868 464.60354544197503 L 869 465.24576112095394 L 870 465.8839290928089 L 871 466.5180085150076 L 872 467.14795880668345 L 873 467.77373965123275 L 874 468.3953109988952 L 875 469.0126330693165 L 876 469.62566635409496 L 877 470.2343716193096 L 878 470.8387099080313 L 879 471.4386425428157 L 880 472.0341311281791 L 881 472.6251375530552 L 882 473.2116239932346 L 883 473.7935529137852 L 884 474.3708870714549 L 885 474.94358951705453 L 886 475.511623597823 L 887 476.07495295977327 L 888 476.6335415500182 L 889 477.18735361907886 L 890 477.73635372317176 L 891 478.2805067264777 L 892 478.81977780339014 L 893 479.35413244074425 L 894 479.88353644002564 L 895 480.4079559195591 L 896 480.9273573166769 L 897 481.44170738986685 L 898 481.9509732208999 L 899 482.45512221693673 L 900 482.9541221126136 L 901 483.4479409721076 L 902 483.9365471911802 L 903 484.4199094992001 L 904 484.8979969611447 L 905 485.37077897957965 L 906 485.838225296617 L 907 486.3003059958521 L 908 486.7569915042779 L 909 487.2082525941778 L 910 487.65406038499594 L 911 488.094386345186 L 912 488.52920229403685 L 913 488.9584804034761 L 914 489.3821931998512 L 915 489.800313565688 L 916 490.21281474142563 L 917 490.61967032712977 L 918 491.0208542841817 L 919 491.41634093694523 L 920 491.8061049744095 L 921 492.19012145180915 L 922 492.5683657922207 L 923 492.94081378813553 L 924 493.3074416030089 L 925 493.66822577278595 L 926 494.0231432074029 L 927 494.372171192265 L 928 494.7152873897005 L 929 495.0524698403898 L 930 495.38369696477116 L 931 495.70894756442163 L 932 496.02820082341395 L 933 496.34143630964843 L 934 496.6486339761609 L 935 496.94977416240556 L 936 497.24483759551333 L 937 497.5338053915251 L 938 497.8166590566006 L 939 498.0933804882019 L 940 498.36395197625166 L 941 498.6283562042672 L 942 498.886576250468 L 943 499.1385955888594 L 944 499.3843980902896 L 945 499.6239680234825 L 946 499.85729005604423 L 947 500.0843492554442 L 948 500.30513108997116 L 949 500.5196214296632 L 950 500.72780654721157 L 951 500.92967311884007 L 952 501.1252082251568 L 953 501.3143993519818 L 954 501.4972343911476 L 955 501.67370164127396 L 956 501.84378980851716 L 957 502.0074880072925 L 958 502.16478576097126 L 959 502.3156730025508 L 960 502.4601400752992 L 961 502.59817773337306 L 962 502.7297771424095 L 963 502.85492988009116 L 964 502.97362793668555 L 965 503.0858637155576 L 966 503.1916300336557 L 967 503.2909201219717 L 968 503.3837276259738 L 969 503.47004660601334 L 970 503.5498715377052 L 971 503.6231973122809 L 972 503.69001923691593 L 973 503.75033303502994 L 974 503.8041348465604 L 975 503.8514212282097 L 976 503.89218915366564 L 977 503.9264360137949 L 978 503.9541596168101 L 979 503.97535818841004 L 980 503.99003037189345 L 981 503.9981752282456 L 982 503.99979223619846 L 983 503.99488129226404 L 984 503.9834427107411 L 985 503.96547722369496 L 986 503.9409859809106 L 987 503.9099705498193 L 988 503.872432915398 L 989 503.8283754800425 L 990 503.77780106341356 L 991 503.7207129022567 L 992 503.65711465019467 L 993 503.5870103774939 L 994 503.510404570804 L 995 503.4273021328703 L 996 503.3377083822206 L 997 503.24162905282424 L 998 503.13907029372564 L 999 503.03003866865026 L 1000 502.91454115558497 L 1001 502.79258514633113 L 1002 502.66417844603166 L 1003 502.5293292726717 L 1004 502.3880462565521 L 1005 502.2403384397379 L 1006 502.0862152754788 L 1007 501.9256866276048 L 1008 501.7587627698946 L 1009 501.58545438541796 L 1010 501.4057725658524 L 1011 501.21972881077306 L 1012 501.0273350269168 L 1013 500.82860352742 L 1014 500.62354703103097 L 1015 500.41217866129534 L 1016 500.1945119457166 L 1017 499.9705608148904 L 1018 499.7403396016126 L 1019 499.50386303996225 L 1020 499.26114626435856 L 1021 499.0122048085924 L 1022 498.75705460483186 L 1023 498.49571198260304 L 1024 498.2281936677444 L 1025 497.95451678133685 L 1026 497.6746988386077 L 1027 497.3887577478098 L 1028 497.09671180907526 L 1029 496.79857971324464 L 1030 496.49438054067014 L 1031 496.1841337599951 L 1032 495.8678592269075 L 1033 495.5455771828696 L 1034 495.21730825382207 L 1035 494.8830734488645 L 1036 494.54289415891014 L 1037 494.19679215531755 L 1038 493.8447895884968 L 1039 493.48690898649204 L 1040 493.1231732535395 L 1041 492.7536056686021 L 1042 492.3782298838791 L 1043 491.99706992329254 L 1044 491.61015018094986 L 1045 491.21749541958246 L 1046 490.819130768961 L 1047 490.41508172428723 L 1048 490.005374144562 L 1049 489.5900342509307 L 1050 489.16908862500463 L 1051 488.7425642071603 L 1052 488.3104882948146 L 1053 487.8728885406788 L 1054 487.42979295098746 L 1055 486.98122988370733 L 1056 486.52722804672146 L 1057 486.06781649599253 L 1058 485.6030246337029 L 1059 485.1328822063732 L 1060 484.6574193029582 L 1061 484.1766663529216 L 1062 483.6906541242878 L 1063 483.1994137216739 L 1064 482.7029765842977 L 1065 482.2013744839668 L 1066 481.6946395230441 L 1067 481.1828041323945 L 1068 480.6659010693079 L 1069 480.14396341540424 L 1070 479.61702457451497 L 1071 479.0851182705463 L 1072 478.5482785453198 L 1073 478.006539756395 L 1074 477.4599365748692 L 1075 476.90850398315956 L 1076 476.3522772727637 L 1077 475.79129204200126 L 1078 475.2255841937355 L 1079 474.65518993307563 L 1080 474.08014576505957 L 1081 473.5004884923179 L 1082 472.91625521271817 L 1083 472.3274833169909 L 1084 471.7342104863363 L 1085 471.13647469001324 L 1086 470.5343141829085 L 1087 469.92776750308906 L 1088 469.3168734693353 L 1089 468.7016711786571 L 1090 468.08220000379083 L 1091 467.4584995906804 L 1092 466.83060985593914 L 1093 466.19857098429605 L 1094 465.5624234260229 L 1095 464.92220789434657 L 1096 464.2779653628422 L 1097 463.62973706281235 L 1098 462.9775644806465 L 1099 462.32148935516767 L 1100 461.6615536749597 L 1101 460.9977996756811 L 1102 460.33026983736096 L 1103 459.65900688168136 L 1104 458.98405376924217 L 1105 458.3054536968124 L 1106 457.6232500945647 L 1107 456.93748662329716 L 1108 456.24820717163755 L 1109 455.5554558532358 L 1110 454.8592770039395 L 1111 454.15971517895764 L 1112 453.4568151500081 L 1113 452.7506219024529 L 1114 452.0411806324187 L 1115 451.3285367439048 L 1116 450.6127358458766 L 1117 449.8938237493476 L 1118 449.1718464644461 L 1119 448.4468501974724 L 1120 447.71888134793966 L 1121 446.9879865056062 L 1122 446.2542124474921 L 1123 445.5176061348869 L 1124 444.77821471034287 L 1125 444.0360854946592 L 1126 443.2912659838521 L 1127 442.5438038461159 L 1128 441.79374691877274 L 1129 441.04114320520944 L 1130 440.2860408718072 L 1131 439.5284882448573 L 1132 438.76853380746957 L 1133 438.0062261964683 L 1134 437.24161419928066 L 1135 436.4747467508133 L 1136 435.7056729303214 L 1137 434.9344419582666 L 1138 434.16110319316823 L 1139 433.385706128443 L 1140 432.60830038923865 L 1141 431.82893572925684 L 1142 431.04766202757014 L 1143 430.2645292854284 L 1144 429.4795876230602 L 1145 428.6928872764636 L 1146 427.9044785941926 L 1147 427.1144120341335 L 1148 426.32273816027674 L 1149 425.5295076394797 L 1150 424.7347712382253 L 1151 423.9385798193715 L 1152 423.1409843388979 L 1153 422.34203584264253 L 1154 421.5417854630368 L 1155 420.74028441583147 L 1156 419.9375839968204 L 1157 419.133735578556 L 1158 418.3287906070631 L 1159 417.52280059854473 L 1160 416.7158171360866 L 1161 415.90789186635465 L 1162 415.09907649629065 L 1163 414.2894227898018 L 1164 413.4789825644494 L 1165 412.6678076881308 L 1166 411.85595007576165 L 1167 411.04346168595157 L 1168 410.2303945176807 L 1169 409.41680060696973 L 1170 408.6027320235517 L 1171 407.78824086753775 L 1172 406.9733792660842 L 1173 406.15819937005494 L 1174 405.34275335068554 L 1175 404.5270933962425 L 1176 403.7112717086849 L 1177 402.8953405003218 L 1178 402.0793519904725 L 1179 401.2633584021227 L 1180 400.447411958584 L 1181 399.6315648801497 L 1182 398.8158693807549 L 1183 398.00037766463265 L 1184 397.1851419229749 L 1185 396.3702143305904 L 1186 395.5556470425673 L 1187 394.7414921909336 L 1188 393.92780188132235 L 1189 393.1146281896352 L 1190 392.30202315871117 L 1191 391.49003879499463 L 1192 390.67872706520797 L 1193 389.86813989302465 L 1194 389.05832915574734 L 1195 388.24934668098643 L 1196 387.44124424334467 L 1197 386.6340735611017 L 1198 385.8278862929061 L 1199 385.0227340344676 L 1200 384.2186683152561 L 1201 383.41574059520286 L 1202 382.61400226140836 L 1203 381.8135046248519 L 1204 381.0142989171093 L 1205 380.21643628707267 L 1206 379.4199677976784 L 1207 378.62494442263767 L 1208 377.83141704317535 L 1209 377.0394364447726 L 1210 376.24905331391767 L 1211 375.46031823486084 L 1212 374.67328168637835 L 1213 373.88799403854017 L 1214 373.10450554948824 L 1215 372.32286636221795 L 1216 371.54312650137086 L 1217 370.7653358700316 L 1218 369.98954424653544 L 1219 369.21580128128113 L 1220 368.4441564935546 L 1221 367.6746592683587 L 1222 366.9073588532534 L 1223 366.14230435520307 L 1224 365.37954473743474 L 1225 364.6191288163033 L 1226 363.8611052581685 L 1227 363.10552257627893 L 1228 362.3524291276687 L 1229 361.60187311006115 L 1230 360.8539025587855 L 1231 360.1085653437014 L 1232 359.3659091661366 L 1233 358.6259815558326 L 1234 357.8888298679042 L 1235 357.1545012798075 L 1236 356.4230427883218 L 1237 355.6945012065406 L 1238 354.96892316087684 L 1239 354.24635508807734 L 1240 353.5268432322525 L 1241 352.8104336419151 L 1242 352.09717216703484 L 1243 351.38710445610224 L 1244 350.68027595320876 L 1245 349.97673189513705 L 1246 349.27651730846696 L 1247 348.57967700669275 L 1248 347.8862555873561 L 1249 347.196297429191 L 1250 346.5098466892843 L 1251 345.82694730024883 L 1252 345.1476429674123 L 1253 344.4719771660205 L 1254 343.79999313845366 L 1255 343.1317338914606 L 1256 342.4672421934047 L 1257 341.80656057152805 L 1258 341.1497313092287 L 1259 340.49679644335555 L 1260 339.8477977615168 L 1261 339.2027767994069 L 1262 338.56177483814696 L 1263 337.924832901644 L 1264 337.29199175396417 L 1265 336.66329189672535 L 1266 336.03877356650344 L 1267 335.4184767322587 L 1268 334.80244109277646 L 1269 334.1907060741278 L 1270 333.58331082714466 L 1271 332.98029422491584 L 1272 332.3816948602979 L 1273 331.787551043446 L 1274 331.1979007993614 L 1275 330.6127818654587 L 1276 330.0322316891497 L 1277 329.4562874254477 L 1278 328.88498593458894 L 1279 328.31836377967386 L 1280 327.7564572243269 L 1281 327.1993022303759 L 1282 326.6469344555501 L 1283 326.09938925119883 L 1284 325.556701660028 L 1285 325.0189064138585 L 1286 324.48603793140217 L 1287 323.95813031606036 L 1288 323.43521735374 L 1289 322.9173325106923 L 1290 322.4045089313704 L 1291 321.8967794363084 L 1292 321.39417652002055 L 1293 320.8967323489221 L 1294 320.4044787592701 L 1295 319.9174472551264 L 1296 319.43566900634073 L 1297 318.9591748465569 L 1298 318.4879952712382 L 1299 318.02216043571696 L 1300 317.5617001532633 L 1301 317.10664389317844 L 1302 316.6570207789074 L 1303 316.21285958617625 L 1304 315.7741887411496 L 1305 315.3410363186119 L 1306 314.91343004017017 L 1307 314.4913972724805 L 1308 314.07496502549577 L 1309 313.6641599507378 L 1310 313.259008339591 L 1311 312.85953612162035 L 1312 312.46576886291126 L 1313 312.07773176443413 L 1314 311.69544966043054 L 1315 311.3189470168249 L 1316 310.94824792965767 L 1317 310.58337612354416 L 1318 310.22435495015515 L 1319 309.87120738672337 L 1320 309.5239560345722 L 1321 309.18262311766983 L 1322 308.8472304812062 L 1323 308.51779959019586 L 1324 308.19435152810314 L 1325 307.87690699549375 L 1326 307.5654863087093 L 1327 307.2601093985675 L 1328 306.9607958090864 L 1329 306.6675646962336 L 1330 306.3804348267001 L 1331 306.0994245766997 L 1332 305.82455193079227 L 1333 305.55583448073355 L 1334 305.2932894243485 L 1335 305.03693356443114 L 1336 304.78678330766894 L 1337 304.5428546635931 L 1338 304.3051632435534 L 1339 304.07372425971977 L 1340 303.8485525241081 L 1341 303.62966244763254 L 1342 303.4170680391833 L 1343 303.21078290473 L 1344 303.01082024645086 L 1345 302.8171928618877 L 1346 302.629913143127 L 1347 302.44899307600696 L 1348 302.27444423935003 L 1349 302.10627780422215 L 1350 301.94450453321787 L 1351 301.78913477977125 L 1352 301.6401784874935 L 1353 301.49764518953646 L 1354 301.3615440079825 L 1355 301.2318836532609 L 1356 301.10867242359006 L 1357 300.9919182044466 L 1358 300.8816284680607 L 1359 300.77781027293787 L 1360 300.6804702634071 L 1361 300.58961466919584 L 1362 300.50524930503104 L 1363 300.4273795702673 L 1364 300.356010448541 L 1365 300.2911465074516 L 1366 300.2327918982691 L 1367 300.1809503556687 L 1368 300.1356251974914 L 1369 300.0968193245318 L 1370 300.0645352203525 L 1371 300.03877495112533 L 1372 300.0195401654985 L 1373 300.00683209449187 L 1374 300.00065155141755 L 1375 300.00099893182824 L 1376 300.00787421349173 L 1377 300.02127695639234 L 1378 300.041206302759 L 1379 300.0676609771205 L 1380 300.1006392863866 L 1381 300.1401391199568 L 1382 300.18615794985527 L 1383 300.23869283089255 L 1384 300.29774040085414 L 1385 300.36329688071584 L 1386 300.43535807488524 L 1387 300.51391937147054 L 1388 300.5989757425755 L 1389 300.6905217446215 L 1390 300.7885515186956 L 1391 300.89305879092575 L 1392 301.0040368728822 L 1393 301.12147866200553 L 1394 301.2453766420614 L 1395 301.37572288362134 L 1396 301.5125090445703 L 1397 301.6557263706409 L 1398 301.8053656959729 L 1399 301.9614174437007 L 1400 302.12387162656563 L 1401 302.29271784755554 L 1402 302.4679453005698 L 1403 302.6495427711113 L 1404 302.83749863700393 L 1405 303.0318008691364 L 1406 303.23243703223216 L 1407 303.4393942856453 L 1408 303.65265938418213 L 1409 303.87221867894925 L 1410 304.09805811822673 L 1411 304.3301632483675 L 1412 304.56851921472247 L 1413 304.81311076259124 L 1414 305.063922238198 L 1415 305.3209375896942 L 1416 305.5841403681849 L 1417 305.85351372878216 L 1418 306.1290404316828 L 1419 306.410702843272 L 1420 306.6984829372514 L 1421 306.99236229579344 L 1422 307.29232211071917 L 1423 307.59834318470314 L 1424 307.91040593250085 L 1425 308.22849038220306 L 1426 308.5525761765135 L 1427 308.88264257405206 L 1428 309.21866845068183 L 1429 309.5606323008615 L 1430 309.9085122390213 L 1431 310.2622860009641 L 1432 310.6219309452896 L 1433 310.9874240548444 L 1434 311.35874193819404 L 1435 311.7358608311209 L 1436 312.1187565981444 L 1437 312.5074047340663 L 1438 312.9017803655384 L 1439 313.30185825265505 L 1440 313.70761279056785 L 1441 314.11901801112515 L 1442 314.536047584533 L 1443 314.95867482104114 L 1444 315.38687267265067 L 1445 315.8206137348453 L 1446 316.25987024834507 L 1447 316.7046141008831 L 1448 317.1548168290044 L 1449 317.6104496198884 L 1450 318.0714833131917 L 1451 318.53788840291554 L 1452 319.00963503929313 L 1453 319.48669303070096 L 1454 319.9690318455903 L 1455 320.4566206144417 L 1456 320.9494281317403 L 1457 321.4474228579734 L 1458 321.95057292164825 L 1459 322.4588461213327 L 1460 322.97220992771537 L 1461 323.49063148568797 L 1462 324.01407761644754 L 1463 324.5425148196207 L 1464 325.07590927540645 L 1465 325.614226846742 L 1466 326.1574330814863 L 1467 326.705493214626 L 1468 327.25837217049934 L 1469 327.8160345650421 L 1470 328.37844470805123 L 1471 328.9455666054697 L 1472 329.51736396168945 L 1473 330.09380018187505 L 1474 330.674838374305 L 1475 331.26044135273355 L 1476 331.85057163876957 L 1477 332.44519146427666 L 1478 333.04426277378855 L 1479 333.6477472269462 L 1480 334.2556062009503 L 1481 334.86780079303435 L 1482 335.4842918229531 L 1483 336.1050398354913 L 1484 336.73000510298783 L 1485 337.3591476278791 L 1486 337.99242714525803 L 1487 338.62980312545193 L 1488 339.27123477661536 L 1489 339.91668104734185 L 1490 340.56610062929013 L 1491 341.21945195982886 L 1492 341.8766932246956 L 1493 342.5377823606741 L 1494 343.20267705828496 L 1495 343.8713347644948 L 1496 344.5437126854384 L 1497 345.2197677891585 L 1498 345.89945680835905 L 1499 346.5827362431751 L 1500 347.26956236395563 L 1501 347.95989121406365 L 1502 348.65367861268845 L 1503 349.35088015767303 L 1504 350.0514512283568 L 1505 350.7553469884301 L 1506 351.4625223888048 L 1507 352.17293217049644 L 1508 352.8865308675216 L 1509 353.60327280980715 L 1510 354.32311212611364 L 1511 355.0460027469702 L 1512 355.7718984076242 L 1513 356.50075265100077 L 1514 357.23251883067746 L 1515 357.9671501138683 L 1516 358.7045994844221 L 1517 359.44481974583056 L 1518 360.18776352425004 L 1519 360.9333832715319 L 1520 361.6816312682672 L 1521 362.4324596268392 L 1522 363.18582029448953 L 1523 363.94166505639225 L 1524 364.6999455387411 L 1525 365.46061321184345 L 1526 366.22361939322843 L 1527 366.98891525076033 L 1528 367.756451805766 L 1529 368.52617993616747 L 1530 369.2980503796275 L 1531 370.0720137367008 L 1532 370.8480204739971 L 1533 371.62602092734966 L 1534 372.40596530499545 L 1535 373.1878036907601 L 1536 373.9714860472542 L 1537 374.756962219074 L 1538 375.5441819360131 L 1539 376.3330948162779" stroke-linecap="round" stroke-linejoin="round" stroke-miterlimit="10"/></g></svg>